<svg xmlns="http://www.w3.org/2000/svg" width="18" height="18" viewBox="0 0 18 18">
    <defs>
        <filter id="prefix__a" width="120.7%" height="185.7%" x="-10.3%" y="-42.9%" filterUnits="objectBoundingBox">
            <feOffset dy="2" in="SourceAlpha" result="shadowOffsetOuter1"/>
            <feGaussianBlur in="shadowOffsetOuter1" result="shadowBlurOuter1" stdDeviation="2"/>
            <feColorMatrix in="shadowBlurOuter1" result="shadowMatrixOuter1" values="0 0 0 0 0.108752264 0 0 0 0 0.101959392 0 0 0 0 0.101959392 0 0 0 0.2 0"/>
            <feMerge>
                <feMergeNode in="shadowMatrixOuter1"/>
                <feMergeNode in="SourceGraphic"/>
            </feMerge>
        </filter>
    </defs>
    <g fill="#79818F" filter="url(#prefix__a)" transform="translate(-4 -7)">
        <path d="M9.59 13.625c.108 0 .201-.074.228-.179.36-1.439 1.666-2.476 3.179-2.477.84-.001 1.633.312 2.244.884l-.816.816c-.295.295-.086.8.332.8h2.618c.259 0 .469-.21.469-.469v-2.618c0-.418-.505-.627-.8-.332l-.698.698c-.87-.831-2.048-1.342-3.346-1.342-2.367 0-4.337 1.698-4.76 3.942-.027.144.084.277.23.277h1.12zM13 19.094c2.367 0 4.337-1.698 4.76-3.942.027-.144-.084-.277-.23-.277h-1.12c-.108 0-.201.074-.228.179-.36 1.44-1.667 2.476-3.179 2.477-.84.001-1.633-.312-2.244-.884l.816-.816c.295-.295.086-.8-.332-.8H8.625c-.259 0-.469.21-.469.469v2.618c0 .418.505.627.8.332l.698-.698c.87.831 2.048 1.342 3.346 1.342z"/>
    </g>
</svg>
